<svg xmlns="http://www.w3.org/2000/svg" width="16" height="16" fill="none" viewBox="0 0 16 16">
  <path fill="#AD4E30" d="m8 11.688 3.562 1.874c.042.01.079.006.11-.015.031-.02.042-.052.031-.094l-.672-3.969 2.875-2.813c.032-.03.042-.065.032-.101-.01-.036-.036-.06-.078-.07l-3.985-.58-1.781-3.608c-.021-.042-.052-.063-.094-.063s-.073.021-.094.063l-1.782 3.61-3.984.577c-.042.01-.068.034-.078.071-.01.037 0 .07.031.101l2.875 2.813-.687 3.969c0 .042.016.073.047.094a.13.13 0 0 0 .11.015L8 11.688Zm-3.094 2.75a1.091 1.091 0 0 1-.601.132 1.084 1.084 0 0 1-.563-.21 1.08 1.08 0 0 1-.375-.477 1.131 1.131 0 0 1-.07-.601l.594-3.454-2.5-2.437a1.013 1.013 0 0 1-.305-.524 1.109 1.109 0 0 1 .032-.609A1.078 1.078 0 0 1 2 5.516l3.469-.5 1.547-3.14a1.01 1.01 0 0 1 .406-.454c.178-.104.37-.156.578-.156.208 0 .401.052.578.156.178.105.313.256.407.453l1.547 3.141 3.469.5c.208.031.393.112.554.242a1 1 0 0 1 .336.5c.063.203.07.406.024.61a1.018 1.018 0 0 1-.305.523l-2.5 2.437.594 3.454a1.123 1.123 0 0 1-.445 1.078c-.172.125-.36.195-.563.21a1.174 1.174 0 0 1-.601-.117l-3.094-1.64-3.096 1.624Z"/>
</svg>
