<svg xmlns="http://www.w3.org/2000/svg" width="16" height="16" fill="none" viewBox="0 0 16 16">
  <path fill="#AD4E30" d="M4.438 13.563 8 11.687l3.563 1.876c.041.01.078.005.11-.016.03-.02.04-.052.03-.094l-.671-3.969 2.875-2.813c.03-.03.041-.065.031-.101-.01-.036-.036-.06-.078-.07l-3.984-.58-1.782-3.608c-.02-.042-.052-.063-.094-.063s-.073.021-.094.063l-1.781 3.61-3.985.577c-.042.01-.068.034-.078.071-.01.037 0 .07.032.101l2.875 2.813-.688 3.969c0 .042.016.073.047.094a.13.13 0 0 0 .11.015Z"/>
</svg>
